<svg xmlns="http://www.w3.org/2000/svg" version="1.1" xmlns:xlink="http://www.w3.org/1999/xlink" viewBox="0 0 10.41295400081068 3.555305826067821"><g transform="matrix(0.7533500996507914,0,0,0.7533500996507914,3.72500896233002,1.3482433562329592)"><g transform="matrix(1,0,0,1,0,0)" clip-path="url(#SvgjsClipPath74387)"><g clip-path="url(#ad09edd2e-2603-428e-9403-fe762e5c6286828fc3d4-4366-4b97-ac77-44fe14f89c8e)"><path d=" M -0.9054573300430178 1.6295956408923562 C -0.9615801714838219 1.630822393694141 -1.0015969358173193 1.5980078554872525 -1.0011572394725934 1.5324887031596575 C -1.0007131461644203 1.4669739477955104 -0.9943815188003684 0.813637943094303 -0.9876849434701942 0.6918376586418025 C -0.9809839711765724 0.5700373741893021 -0.9817754245970789 0.2765400640848146 -0.9822634875397247 0.2540935656865614 C -0.9840530516627588 0.17217373970069305 -1.0997459538870176 0.1673546677624982 -1.1025116438953428 0.04044071482083633 C -1.10397583272328 -0.026604183822957372 -1.083798167463812 -0.40418902289281133 -1.0804081086459758 -0.4669380882486333 C -1.080156090350252 -0.4720490192545743 -1.0759204980896935 -0.47605308986895667 -1.0708034796360932 -0.4760177187736552 C -1.065686461182493 -0.4759823476783537 -1.0615066268416145 -0.47192010591234856 -1.061325287284875 -0.46680617934521573 L -1.0499767246275016 -0.023200934114779415 C -1.0496480098459677 -0.015127169760021153 -1.0429165508184812 -0.008802374536692747 -1.0348379794785914 -0.008976757362898935 L -1.0271608812996786 -0.00914384197389484 C -1.0193366677505782 -0.009315977847788037 -1.0129935998616275 -0.015539692107265246 -1.0126728867409625 -0.023359224798880418 L -1.000418549613454 -0.4793727008774801 C -1.000213103070448 -0.4844113917878608 -0.9961254830971584 -0.4884219958407869 -0.9910837962149246 -0.4885315757381191 L -0.9885951149037766 -0.4885887362629332 C -0.9834713912091184 -0.48869785796278953 -0.9791732394052144 -0.4847468944138039 -0.9788514439046523 -0.47963212172086855 L -0.9583220215694035 -0.02698232267942169 C -0.9577909485127054 -0.018504407746074536 -0.9506644604790035 -0.011956110138194087 -0.942171974827624 -0.012142571044924999 L -0.9339628440715928 -0.012322846546262478 C -0.9254698463532354 -0.012505425263592329 -0.9186352368940536 -0.01935944020107916 -0.9184767388103494 -0.02785292144197893 L -0.9177072702070792 -0.4809644016453871 C -0.9176118640063826 -0.4860880446227701 -0.9134913679475334 -0.49022406044078704 -0.9083681198451028 -0.4903387277149419 L -0.9058750415705072 -0.4903914912763089 C -0.9008337933671129 -0.49050442494112045 -0.8965750110275725 -0.48667518057612424 -0.8961533553886192 -0.48165032794315965 L -0.8649832815110057 -0.026920765191159934 C -0.8642887857651669 -0.018722487433661228 -0.8573403067760235 -0.012476750154419625 -0.8491146404298509 -0.012657015768253954 L -0.8410418155406847 -0.012832894306144427 C -0.8325486017585924 -0.013017376965821836 -0.8257671790098167 -0.019968921911582393 -0.825793146305593 -0.028464099361147355 L -0.8347585547745524 -0.4717483662599344 C -0.8347399478137554 -0.4768258209775162 -0.8307549676799644 -0.48100276382046414 -0.8256840018820384 -0.4812600545205434 C -0.8206130360841122 -0.4815173452206226 -0.8162257495428806 -0.47776519450601984 -0.815693321267241 -0.4727156982183308 C -0.8095727481486572 -0.4101732901445301 -0.7729460426329962 -0.033823997803355654 -0.7714818538050592 0.03322090084043805 C -0.7687117668332866 0.1601348537820998 -0.8840836907258953 0.16999284583085283 -0.8822985235663086 0.25191267181672117 C -0.8818060636602159 0.2743591702149746 -0.8697979564857534 0.5676102503664153 -0.8577898493112912 0.6890016172183206 C -0.8457817421368288 0.8103929840702262 -0.8109577916345438 1.4628320082281925 -0.8076600690491 1.5282676182502897 C -0.8043579495002091 1.5937032282723869 -0.8429061280423222 1.6282325822237058 -0.8990333664465735 1.629454938062044 Z" fill="#ffffff" transform="matrix(1,0,0,1,0,0)" fill-rule="nonzero"></path></g><g clip-path="url(#ad09edd2e-2603-428e-9403-fe762e5c6286828fc3d4-4366-4b97-ac77-44fe14f89c8e)"><path d=" M -1.2408620987633234 1.748652220153767 C -1.1800301094705057 1.748652220153767 -1.1374499154472568 1.712157423541524 -1.1394769155964428 1.6411860365393287 C -1.1415039157456288 1.5702146495371334 -1.16380971131357 0.8625409705547091 -1.1739447120595004 0.7307419912231432 C -1.1840841097688777 0.5989430118915775 -1.1901695071798832 0.2809502184224143 -1.1901695071798832 0.25662181966873476 L -1.190134331472305 -0.5123763085126005 C -1.190134331472305 -0.590233340273202 -1.2358275756162125 -0.6454152315362927 -1.2952349487521186 -0.5787836474565412 C -1.3720411062488256 -0.4926339426344106 -1.4075509830488833 -0.13695477545879714 -1.4075509830488833 -0.05248471067351923 C -1.4075509830488833 0.024950212596145493 -1.4132098750055044 0.2378116100413642 -1.3288365434160663 0.3671482898424654 C -1.3211770330909423 0.3788925792100921 -1.294795252407393 0.4407622518764629 -1.2971608187420178 0.4914592404233502 C -1.299869348225529 0.5495651123788678 -1.3471850718814748 1.5702146495371334 -1.3492120720306608 1.6411860365393287 C -1.3512434691432942 1.712157423541524 -1.3086632751200453 1.748652220153767 -1.2478268888637805 1.748652220153767 Z" fill="#ffffff" transform="matrix(1,0,0,1,0,0)" fill-rule="nonzero"></path></g><g clip-path="url(#ad09edd2e-2603-428e-9403-fe762e5c6286828fc3d4-4366-4b97-ac77-44fe14f89c8e)"><path d=" M -0.5463573253054377 -0.18430127785887435 C -0.43811287916083463 -0.18430127785887435 -0.3999999999999999 -0.04891877331779326 -0.3999999999999999 0.05181126229544575 C -0.3999999999999999 0.15254129790868476 -0.437730343340923 0.2010046290243651 -0.49314527366671834 0.28595835978884143 C -0.49817979681382907 0.29367503063877975 -0.5155082297594737 0.3343117668183404 -0.5139561016625915 0.3676143679678743 C -0.5121753314664521 0.40578001069007574 -0.48109319685778384 1.207152980733573 -0.4797609169332646 1.253769587201405 C -0.4784330339721925 1.3003861936692367 -0.5064021184602021 1.3243628353471362 -0.5463573253054377 1.3243628353471362 C -0.5863125321506732 1.3243628353471362 -0.6142860136021304 1.3003861936692367 -0.6129537336776107 1.253769587201405 C -0.6116214537530915 1.2071529807335735 -0.5805393191444232 0.40578001069007574 -0.5787585489482838 0.3676143679678743 C -0.5772064208514016 0.3343117668183404 -0.5945348537970463 0.29367503063877975 -0.599569376944157 0.28595835978884143 C -0.6549887042333999 0.2010046290243651 -0.6927146506108754 0.15254129790868465 -0.6927146506108754 0.05181126229544575 C -0.6927146506108754 -0.04891877331779326 -0.6546017714500407 -0.18430127785887435 -0.5463573253054377 -0.18430127785887435" fill="#ffffff" transform="matrix(1,0,0,1,0,0)" fill-rule="nonzero"></path></g><g clip-path="url(#ad09edd2e-2603-428e-9403-fe762e5c6286828fc3d4-4366-4b97-ac77-44fe14f89c8e)"><path d=" M -1.4714740376451236 -0.6256420869139729 L -1.4714740376451236 1.7656420869139726 C -2.1275801293181034 1.7607482665971745 -2.657959448180181 1.2272910733220161 -2.657959448180181 0.5700021984817238 C -2.657959448180181 -0.08729107332201602 -2.1275801293181034 -0.6207482665971745 -1.4714740376451236 -0.6256420869139729" fill="#ffffff" transform="matrix(1,0,0,1,0,0)" fill-rule="nonzero"></path></g><g clip-path="url(#bd09edd2e-2603-428e-9403-fe762e5c6286828fc3d4-4366-4b97-ac77-44fe14f89c8e)"><path d=" M -1.462680110750607 1.4311606805175914 C -1.934100546748399 1.4263460055428436 -2.3234736448203526 1.0426098146102756 -2.3234736448203526 0.5700021984817236 C -2.3234736448203526 0.09747812465866967 -1.934100546748399 -0.28625806627389827 -1.462680110750607 -0.29107274124864624" fill="none" transform="matrix(1,0,0,1,0,0)" fill-rule="nonzero" stroke-dasharray="none" stroke-miterlimit="10" stroke-linejoin="miter" stroke-linecap="butt" stroke-width="0.023677648163485613" stroke="#ff6b00"></path></g></g><g><path d=" M 0.6285000000000001 0.9750000000000001 L 0.6285000000000001 1.1400000000000001 L 0.126 1.1400000000000001 L 0.126 0.09450000000000003 L 0.3165 0.09450000000000003 L 0.3165 0.9750000000000001 L 0.6285000000000001 0.9750000000000001 M 0.888760986328125 1.1085 Q 0.811510986328125 1.062 0.771010986328125 0.9746250000000001 Q 0.730510986328125 0.8872500000000001 0.730510986328125 0.7650000000000001 Q 0.730510986328125 0.6427500000000002 0.772135986328125 0.5550000000000002 Q 0.813760986328125 0.46725000000000017 0.892885986328125 0.4211250000000001 Q 0.972010986328125 0.3750000000000001 1.0815109863281251 0.3750000000000001 Q 1.190260986328125 0.3750000000000001 1.266385986328125 0.42262500000000014 Q 1.342510986328125 0.47025000000000006 1.381510986328125 0.5580000000000002 Q 1.4205109863281251 0.64575 1.4205109863281251 0.7650000000000001 Q 1.4205109863281251 0.8835000000000002 1.380010986328125 0.9716250000000002 Q 1.3395109863281252 1.0597500000000002 1.2618859863281249 1.1073750000000002 Q 1.184260986328125 1.155 1.075510986328125 1.155 Q 0.966010986328125 1.155 0.888760986328125 1.1085 M 1.184635986328125 0.9442500000000001 Q 1.221010986328125 0.8835000000000002 1.221010986328125 0.7650000000000001 Q 1.221010986328125 0.64575 1.184635986328125 0.5846250000000001 Q 1.148260986328125 0.5235000000000001 1.078510986328125 0.5235000000000001 Q 1.005010986328125 0.5235000000000001 0.967510986328125 0.5812500000000002 Q 0.930010986328125 0.6390000000000001 0.930010986328125 0.7650000000000001 Q 0.930010986328125 0.8910000000000001 0.967510986328125 0.9480000000000002 Q 1.005010986328125 1.0050000000000001 1.078510986328125 1.0050000000000001 Q 1.148260986328125 1.0050000000000001 1.184635986328125 0.9442500000000001 M 1.6972705078125 1.1058750000000002 Q 1.6207705078125 1.0537500000000002 1.5843955078125 0.9660000000000001 Q 1.5480205078125 0.8782500000000002 1.5480205078125 0.7695000000000001 Q 1.5480205078125 0.663 1.5885205078125 0.5730000000000001 Q 1.6290205078125 0.4830000000000001 1.7085205078125 0.42900000000000016 Q 1.7880205078125 0.3750000000000001 1.8990205078125 0.3750000000000001 Q 1.9680205078125 0.3750000000000001 2.0193955078125 0.3896250000000001 Q 2.0707705078125 0.4042500000000001 2.1180205078125 0.4425000000000001 L 2.0565205078125 0.6015000000000001 Q 2.0347705078125 0.5692500000000001 1.9923955078125 0.5501250000000001 Q 1.9500205078125 0.5310000000000001 1.9095205078125 0.5310000000000001 Q 1.7460205078125 0.5310000000000001 1.7460205078125 0.7680000000000001 Q 1.7460205078125 0.8917500000000002 1.7861455078125 0.9483750000000001 Q 1.8262705078125 1.0050000000000001 1.9095205078125 1.0050000000000001 Q 1.9597705078125 1.0050000000000001 2.0013955078125 0.9862500000000001 Q 2.0430205078125 0.9675000000000001 2.0670205078125 0.9405000000000001 L 2.1240205078125 1.074 Q 2.1075205078125 1.092 2.0741455078125 1.1111250000000001 Q 2.0407705078125 1.1302500000000002 1.9927705078125 1.144125 Q 1.9447705078125 1.1580000000000001 1.8885205078125 1.1580000000000001 Q 1.7737705078125 1.1580000000000001 1.6972705078125 1.1058750000000002 M 2.308503662109375 1.1310000000000002 Q 2.262753662109375 1.1010000000000002 2.239878662109375 1.05 Q 2.217003662109375 0.9990000000000001 2.217003662109375 0.9360000000000002 Q 2.217003662109375 0.8812500000000001 2.253378662109375 0.8268750000000001 Q 2.289753662109375 0.7725000000000002 2.382753662109375 0.7342500000000001 Q 2.475753662109375 0.6960000000000002 2.634003662109375 0.6960000000000002 L 2.634003662109375 0.6615000000000001 Q 2.634003662109375 0.6000000000000001 2.604378662109375 0.5662500000000001 Q 2.574753662109375 0.5325000000000001 2.500503662109375 0.5325000000000001 Q 2.442003662109375 0.5325000000000001 2.386128662109375 0.5523750000000001 Q 2.3302536621093752 0.5722500000000001 2.304003662109375 0.6015000000000001 L 2.244003662109375 0.45750000000000013 Q 2.295003662109375 0.42300000000000015 2.370753662109375 0.39900000000000013 Q 2.446503662109375 0.3750000000000001 2.532003662109375 0.3750000000000001 Q 2.639253662109375 0.3750000000000001 2.701878662109375 0.40800000000000014 Q 2.764503662109375 0.44100000000000006 2.790003662109375 0.5010000000000001 Q 2.815503662109375 0.5610000000000002 2.815503662109375 0.6495000000000002 L 2.815503662109375 1.1400000000000001 L 2.655003662109375 1.1400000000000001 L 2.641503662109375 1.0335 Q 2.601753662109375 1.098 2.547378662109375 1.1295000000000002 Q 2.493003662109375 1.161 2.421003662109375 1.161 Q 2.354253662109375 1.161 2.308503662109375 1.1310000000000002 M 2.573253662109375 0.9892500000000002 Q 2.6115036621093752 0.9615000000000001 2.634003662109375 0.9195000000000001 L 2.634003662109375 0.8130000000000002 Q 2.623503662109375 0.8115000000000001 2.598003662109375 0.8115000000000001 Q 2.522253662109375 0.8115000000000001 2.462628662109375 0.8366250000000002 Q 2.403003662109375 0.8617500000000001 2.403003662109375 0.9180000000000001 Q 2.403003662109375 0.9712500000000002 2.426628662109375 0.9941250000000001 Q 2.450253662109375 1.0170000000000001 2.500503662109375 1.0170000000000001 Q 2.535003662109375 1.0170000000000001 2.573253662109375 0.9892500000000002 M 3.019517578125 0 L 3.202517578125 0 L 3.202517578125 1.1400000000000001 L 3.019517578125 1.1400000000000001 L 3.019517578125 0 M 4.082997802734375 0.6723750000000002 Q 4.1264978027343755 0.7372500000000002 4.1264978027343755 0.8385000000000001 Q 4.1264978027343755 0.9825000000000002 4.028622802734375 1.06125 Q 3.930747802734375 1.1400000000000001 3.725997802734375 1.1400000000000001 L 3.442497802734375 1.1400000000000001 L 3.442497802734375 0.09450000000000003 L 3.7214978027343752 0.09450000000000003 Q 4.073997802734375 0.09450000000000003 4.073997802734375 0.37350000000000005 Q 4.073997802734375 0.4387500000000001 4.043247802734375 0.4980000000000001 Q 4.012497802734375 0.5572500000000001 3.951747802734375 0.5865000000000001 Q 4.039497802734375 0.6075000000000002 4.082997802734375 0.6723750000000002 M 3.841497802734375 0.27375000000000016 Q 3.794997802734375 0.2430000000000001 3.7214978027343752 0.2430000000000001 L 3.631497802734375 0.2430000000000001 L 3.631497802734375 0.5325000000000001 L 3.752997802734375 0.5325000000000001 Q 3.800997802734375 0.5325000000000001 3.830997802734375 0.5092500000000001 Q 3.860997802734375 0.4860000000000001 3.874497802734375 0.4511250000000001 Q 3.887997802734375 0.4162500000000001 3.887997802734375 0.37950000000000006 Q 3.887997802734375 0.3045000000000001 3.841497802734375 0.27375000000000016 M 3.878247802734375 0.9543750000000001 Q 3.928497802734375 0.9202500000000001 3.928497802734375 0.8280000000000001 Q 3.928497802734375 0.7357500000000001 3.876372802734375 0.7038750000000001 Q 3.824247802734375 0.6720000000000002 3.737997802734375 0.6720000000000002 L 3.631497802734375 0.6720000000000002 L 3.631497802734375 0.9885000000000002 L 3.746997802734375 0.9885000000000002 Q 3.827997802734375 0.9885000000000002 3.878247802734375 0.9543750000000001 M 4.273487548828125 0.07200000000000006 L 4.483487548828125 0.07200000000000006 L 4.483487548828125 0.2715000000000001 L 4.273487548828125 0.2715000000000001 L 4.273487548828125 0.07200000000000006 M 4.280987548828125 0.3930000000000001 L 4.475987548828125 0.3930000000000001 L 4.475987548828125 1.1400000000000001 L 4.280987548828125 1.1400000000000001 L 4.280987548828125 0.3930000000000001 M 4.815031494140625 1.1340000000000001 Q 4.767781494140625 1.1055000000000001 4.748656494140625 1.0481250000000002 Q 4.729531494140625 0.9907500000000001 4.729531494140625 0.8970000000000001 L 4.729531494140625 0.5505000000000001 L 4.632031494140625 0.5505000000000001 L 4.632031494140625 0.3930000000000001 L 4.737031494140625 0.3930000000000001 L 4.747531494140625 0.23550000000000015 L 4.911031494140625 0.16500000000000015 L 4.911031494140625 0.3930000000000001 L 5.095531494140625 0.3930000000000001 L 5.095531494140625 0.5505000000000001 L 4.911031494140625 0.5505000000000001 L 4.911031494140625 0.8925000000000001 Q 4.911031494140625 0.9555000000000001 4.928281494140625 0.9817500000000001 Q 4.945531494140625 1.008 4.980031494140625 1.008 Q 5.010781494140625 1.008 5.047156494140625 0.9918750000000001 Q 5.083531494140625 0.9757500000000001 5.107531494140625 0.9555000000000001 L 5.143531494140625 1.1070000000000002 Q 5.110531494140625 1.1302500000000002 5.048656494140625 1.1463750000000001 Q 4.986781494140625 1.1625 4.945531494140625 1.1625 Q 4.862281494140625 1.1625 4.815031494140625 1.1340000000000001 M 5.371482421875 1.108125 Q 5.292732421875 1.05675 5.256357421875 0.9705000000000001 Q 5.219982421875 0.8842500000000001 5.219982421875 0.7755000000000001 Q 5.219982421875 0.6645000000000001 5.260857421875 0.5733750000000001 Q 5.301732421875 0.48225000000000007 5.380482421875 0.42862500000000014 Q 5.459232421875 0.3750000000000001 5.567982421875 0.3750000000000001 Q 5.729982421875 0.3750000000000001 5.799732421875 0.4683750000000001 Q 5.869482421875 0.5617500000000001 5.869482421875 0.7470000000000001 Q 5.869482421875 0.7830000000000001 5.866482421875 0.8280000000000001 L 5.416482421875 0.8280000000000001 Q 5.420982421875 0.9187500000000002 5.467107421875 0.9678750000000002 Q 5.513232421875 1.0170000000000001 5.602482421875 1.0170000000000001 Q 5.648982421875 1.0170000000000001 5.702232421875 0.9963750000000001 Q 5.755482421875 0.9757500000000001 5.780982421875 0.9465000000000001 L 5.840982421875 1.0890000000000002 Q 5.735232421875 1.1595000000000002 5.570982421875 1.1595000000000002 Q 5.4502324218750005 1.1595000000000002 5.371482421875 1.108125 M 5.678982421875 0.7110000000000001 Q 5.678982421875 0.6007500000000001 5.651607421875 0.5591250000000001 Q 5.624232421875 0.5175000000000001 5.572482421875 0.5175000000000001 Q 5.499732421875 0.5175000000000001 5.459607421875 0.5715000000000001 Q 5.419482421875 0.6255000000000002 5.414982421875 0.7110000000000001 L 5.678982421875 0.7110000000000001 M 6.082080322265625 1.126875 Q 6.020955322265625 1.1002500000000002 5.995455322265625 1.0695000000000001 L 6.050955322265625 0.9270000000000002 Q 6.146955322265625 1.0065000000000002 6.254955322265625 1.0065000000000002 Q 6.303705322265625 1.0065000000000002 6.327330322265625 0.9866250000000001 Q 6.350955322265625 0.9667500000000001 6.350955322265625 0.9375000000000001 Q 6.350955322265625 0.9060000000000001 6.310080322265625 0.8793750000000001 Q 6.269205322265625 0.8527500000000001 6.188955322265625 0.8175000000000001 Q 6.137205322265625 0.7950000000000002 6.098955322265625 0.7702500000000001 Q 6.060705322265625 0.7455 6.032580322265625 0.7031250000000001 Q 6.004455322265625 0.6607500000000002 6.004455322265625 0.6000000000000001 Q 6.004455322265625 0.5325000000000001 6.037830322265625 0.48225000000000007 Q 6.071205322265625 0.43200000000000016 6.1349553222656255 0.40500000000000014 Q 6.198705322265625 0.3780000000000001 6.287955322265625 0.3780000000000001 Q 6.341205322265625 0.3780000000000001 6.388080322265625 0.3896250000000001 Q 6.434955322265625 0.4012500000000001 6.467955322265625 0.4181250000000001 Q 6.500955322265625 0.43500000000000016 6.515955322265625 0.45000000000000007 L 6.464955322265625 0.5850000000000001 Q 6.430455322265625 0.5587500000000001 6.385830322265625 0.5403750000000002 Q 6.341205322265625 0.5220000000000001 6.293955322265625 0.5220000000000001 Q 6.237705322265625 0.5220000000000001 6.214830322265625 0.5366250000000001 Q 6.191955322265625 0.5512500000000001 6.191955322265625 0.5850000000000001 Q 6.191955322265625 0.6187500000000001 6.225330322265625 0.6412500000000001 Q 6.258705322265625 0.6637500000000001 6.328455322265625 0.6915000000000001 Q 6.428955322265625 0.7312500000000002 6.482955322265625 0.7856250000000001 Q 6.536955322265625 0.8400000000000001 6.536955322265625 0.9180000000000001 Q 6.536955322265625 0.9832500000000002 6.507330322265625 1.0361250000000002 Q 6.477705322265625 1.0890000000000002 6.413580322265625 1.12125 Q 6.349455322265625 1.1535000000000002 6.250455322265625 1.1535000000000002 Q 6.143205322265625 1.1535000000000002 6.082080322265625 1.126875" fill="#ffffff" fill-rule="nonzero"></path></g><g></g></g><defs><clipPath id="SvgjsClipPath74387"><path d=" M -2.657959448180181 -0.6256420869139729 h 2.257959448180181 v 2.391284173827946 h -2.257959448180181 Z"></path></clipPath><clipPath id="ad09edd2e-2603-428e-9403-fe762e5c6286828fc3d4-4366-4b97-ac77-44fe14f89c8e"><path d=" M -2.657959448180181 1.7656464838774202 L -0.39999999999999947 1.7656464838774202 L -0.39999999999999947 -0.6256376899505255 L -2.657959448180181 -0.6256376899505255 Z"></path></clipPath><clipPath id="bd09edd2e-2603-428e-9403-fe762e5c6286828fc3d4-4366-4b97-ac77-44fe14f89c8e"><path d=" M -1.4714740376451236 -0.6256376899505255 C -2.1275801293181034 -0.6207438696337271 -2.657959448180181 -0.08728667635856835 -2.657959448180181 0.5700065954451712 C -2.657959448180181 1.2272954702854635 -2.1275801293181034 1.7607526635606217 -1.4714740376451236 1.7656464838774202 Z"></path></clipPath></defs></svg>